# MagicaVoxel @ Ephtracy

# group
o 

# material
mtllib Busytankio_Heavy_Ammo_Chest.mtl
usemtl palette

# normals
vn -1 0 0
vn 1 0 0
vn 0 0 1
vn 0 0 -1
vn 0 -1 0
vn 0 1 0

# texcoords
vt 0.673828 0.5
vt 0.755859 0.5
vt 0.970703 0.5
vt 0.990234 0.5

# verts
v -1.3 0.3 0.5
v -1.3 0.3 -0.5
v -1.3 0.4 0.5
v -1.3 0.4 -0.5
v -1.2 0.4 0.5
v -1.2 0.4 -0.5
v -1.2 0.5 0.5
v -1.2 0.5 -0.5
v -1.1 0.5 0.5
v -1.1 0.5 -0.5
v -1.1 0.6 0.5
v -1.1 0.6 -0.5
v -1 0.4 0.6
v -1 0.4 0.5
v -1 0.4 -0.5
v -1 0.4 -0.6
v -1 0.6 0.5
v -1 0.6 -0.5
v -1 0.7 0.5
v -1 0.7 -0.5
v -1 0.8 0.6
v -1 0.8 -0.6
v -0.9 0 0.5
v -0.9 0 -0.5
v -0.9 0.4 0.5
v -0.9 0.4 -0.5
v -0.9 0.6 0.5
v -0.9 0.6 -0.5
v -0.9 0.7 0.5
v -0.9 0.7 -0.5
v -0.8 0.3 0.6
v -0.8 0.3 0.5
v -0.8 0.3 -0.5
v -0.8 0.3 -0.6
v -0.8 0.4 0.6
v -0.8 0.4 0.5
v -0.8 0.4 -0.5
v -0.8 0.4 -0.6
v -0.7 0.2 -0.5
v -0.7 0.2 -0.6
v -0.7 0.3 -0.5
v -0.7 0.3 -0.6
v -0.7 0.4 -0.5
v -0.7 0.4 -0.6
v -0.7 0.6 -0.5
v -0.7 0.6 -0.6
v -0.6 0.5 0.3
v -0.6 0.5 -0.3
v -0.6 0.6 0.3
v -0.6 0.6 -0.3
v -0.1 0.3 -0.5
v -0.1 0.3 -0.6
v -0.1 0.4 -0.5
v -0.1 0.4 -0.6
v -0.1 0.5 0.4
v -0.1 0.5 -0.4
v -0.1 0.6 0.4
v -0.1 0.6 -0.4
v 0.2 0.5 0.3
v 0.2 0.5 -0.3
v 0.2 0.6 0.3
v 0.2 0.6 -0.3
v 0.6 0.3 -0.5
v 0.6 0.3 -0.6
v 0.6 0.6 -0.5
v 0.6 0.6 -0.6
v 0.7 0.5 0.4
v 0.7 0.5 -0.4
v 0.7 0.6 0.4
v 0.7 0.6 -0.4
v 0.8 0.4 0.6
v 0.8 0.4 0.5
v 0.8 0.4 -0.5
v 0.8 0.4 -0.6
v 0.8 0.5 0.6
v 0.8 0.5 0.5
v 0.8 0.5 -0.5
v 0.8 0.5 -0.6
v 0.8 0.6 0.5
v 0.8 0.6 0.4
v 0.8 0.6 -0.4
v 0.8 0.6 -0.5
v 0.8 0.7 0.5
v 0.8 0.7 -0.5
v 0.9 0.5 0.6
v 0.9 0.5 0.5
v 0.9 0.5 -0.5
v 0.9 0.5 -0.6
v 0.9 0.6 0.6
v 0.9 0.6 0.5
v 0.9 0.6 -0.5
v 0.9 0.6 -0.6
v 0.9 0.7 0.6
v 0.9 0.7 -0.6
v 0.9 0.8 0.6
v 0.9 0.8 -0.6
v 1.1 0.3 0.5
v 1.1 0.3 -0.5
v 1.1 0.4 0.5
v 1.1 0.4 -0.5
v -1.1 0.3 0.5
v -1.1 0.3 -0.5
v -1.1 0.4 0.5
v -1.1 0.4 -0.5
v -0.9 0.5 0.6
v -0.9 0.5 0.5
v -0.9 0.5 -0.5
v -0.9 0.5 -0.6
v -0.9 0.6 0.6
v -0.9 0.6 0.5
v -0.9 0.6 -0.5
v -0.9 0.6 -0.6
v -0.9 0.7 0.6
v -0.9 0.7 -0.6
v -0.9 0.8 0.6
v -0.9 0.8 -0.6
v -0.8 0.4 0.6
v -0.8 0.4 0.5
v -0.8 0.4 -0.5
v -0.8 0.4 -0.6
v -0.8 0.5 0.6
v -0.8 0.5 0.5
v -0.8 0.5 -0.5
v -0.8 0.5 -0.6
v -0.8 0.6 0.5
v -0.8 0.6 0.4
v -0.8 0.6 -0.4
v -0.8 0.6 -0.5
v -0.8 0.7 0.5
v -0.8 0.7 -0.5
v -0.7 0.5 0.4
v -0.7 0.5 -0.4
v -0.7 0.6 0.4
v -0.7 0.6 -0.4
v -0.6 0.3 -0.5
v -0.6 0.3 -0.6
v -0.6 0.6 -0.5
v -0.6 0.6 -0.6
v -0.2 0.5 0.3
v -0.2 0.5 -0.3
v -0.2 0.6 0.3
v -0.2 0.6 -0.3
v 0.0999999 0.3 -0.5
v 0.0999999 0.3 -0.6
v 0.0999999 0.4 -0.5
v 0.0999999 0.4 -0.6
v 0.0999999 0.5 0.4
v 0.0999999 0.5 -0.4
v 0.0999999 0.6 0.4
v 0.0999999 0.6 -0.4
v 0.6 0.5 0.3
v 0.6 0.5 -0.3
v 0.6 0.6 0.3
v 0.6 0.6 -0.3
v 0.7 0.2 -0.5
v 0.7 0.2 -0.6
v 0.7 0.3 -0.5
v 0.7 0.3 -0.6
v 0.7 0.4 -0.5
v 0.7 0.4 -0.6
v 0.7 0.6 -0.5
v 0.7 0.6 -0.6
v 0.8 0.3 0.6
v 0.8 0.3 0.5
v 0.8 0.3 -0.5
v 0.8 0.3 -0.6
v 0.8 0.4 0.6
v 0.8 0.4 0.5
v 0.8 0.4 -0.5
v 0.8 0.4 -0.6
v 0.9 0 0.5
v 0.9 0 -0.5
v 0.9 0.4 0.5
v 0.9 0.4 -0.5
v 0.9 0.6 0.5
v 0.9 0.6 -0.5
v 0.9 0.7 0.5
v 0.9 0.7 -0.5
v 1 0.4 0.6
v 1 0.4 0.5
v 1 0.4 -0.5
v 1 0.4 -0.6
v 1 0.6 0.5
v 1 0.6 -0.5
v 1 0.7 0.5
v 1 0.7 -0.5
v 1 0.8 0.6
v 1 0.8 -0.6
v 1.1 0.5 0.5
v 1.1 0.5 -0.5
v 1.1 0.6 0.5
v 1.1 0.6 -0.5
v 1.2 0.4 0.5
v 1.2 0.4 -0.5
v 1.2 0.5 0.5
v 1.2 0.5 -0.5
v 1.3 0.3 0.5
v 1.3 0.3 -0.5
v 1.3 0.4 0.5
v 1.3 0.4 -0.5
v -1 0.4 0.6
v -1 0.8 0.6
v -0.9 0.5 0.6
v -0.9 0.6 0.6
v -0.9 0.7 0.6
v -0.9 0.8 0.6
v -0.8 0.3 0.6
v -0.8 0.4 0.6
v -0.8 0.5 0.6
v 0.8 0.3 0.6
v 0.8 0.4 0.6
v 0.8 0.5 0.6
v 0.9 0.5 0.6
v 0.9 0.6 0.6
v 0.9 0.7 0.6
v 0.9 0.8 0.6
v 1 0.4 0.6
v 1 0.8 0.6
v -1.3 0.3 0.5
v -1.3 0.4 0.5
v -1.2 0.4 0.5
v -1.2 0.5 0.5
v -1.1 0.3 0.5
v -1.1 0.4 0.5
v -1.1 0.5 0.5
v -1.1 0.6 0.5
v -1 0.4 0.5
v -1 0.6 0.5
v -0.9 0 0.5
v -0.9 0.4 0.5
v -0.9 0.5 0.5
v -0.9 0.6 0.5
v -0.8 0.3 0.5
v -0.8 0.4 0.5
v -0.8 0.5 0.5
v -0.7 0.4 0.5
v -0.7 0.5 0.5
v 0.7 0.4 0.5
v 0.7 0.5 0.5
v 0.8 0.3 0.5
v 0.8 0.4 0.5
v 0.8 0.5 0.5
v 0.9 0 0.5
v 0.9 0.4 0.5
v 0.9 0.5 0.5
v 0.9 0.6 0.5
v 1 0.4 0.5
v 1 0.6 0.5
v 1.1 0.3 0.5
v 1.1 0.4 0.5
v 1.1 0.5 0.5
v 1.1 0.6 0.5
v 1.2 0.4 0.5
v 1.2 0.5 0.5
v 1.3 0.3 0.5
v 1.3 0.4 0.5
v -0.6 0.5 0.3
v -0.6 0.6 0.3
v -0.2 0.5 0.3
v -0.2 0.6 0.3
v 0.2 0.5 0.3
v 0.2 0.6 0.3
v 0.6 0.5 0.3
v 0.6 0.6 0.3
v -0.7 0.5 -0.4
v -0.7 0.6 -0.4
v -0.1 0.5 -0.4
v -0.1 0.6 -0.4
v 0.0999999 0.5 -0.4
v 0.0999999 0.6 -0.4
v 0.7 0.5 -0.4
v 0.7 0.6 -0.4
v -1 0.6 -0.5
v -1 0.7 -0.5
v -0.9 0.6 -0.5
v -0.9 0.7 -0.5
v -0.8 0.6 -0.5
v -0.8 0.7 -0.5
v 0.8 0.6 -0.5
v 0.8 0.7 -0.5
v 0.9 0.6 -0.5
v 0.9 0.7 -0.5
v 1 0.6 -0.5
v 1 0.7 -0.5
v -1 0.6 0.5
v -1 0.7 0.5
v -0.9 0.6 0.5
v -0.9 0.7 0.5
v -0.8 0.6 0.5
v -0.8 0.7 0.5
v 0.8 0.6 0.5
v 0.8 0.7 0.5
v 0.9 0.6 0.5
v 0.9 0.7 0.5
v 1 0.6 0.5
v 1 0.7 0.5
v -0.7 0.5 0.4
v -0.7 0.6 0.4
v -0.1 0.5 0.4
v -0.1 0.6 0.4
v 0.0999999 0.5 0.4
v 0.0999999 0.6 0.4
v 0.7 0.5 0.4
v 0.7 0.6 0.4
v -0.6 0.5 -0.3
v -0.6 0.6 -0.3
v -0.2 0.5 -0.3
v -0.2 0.6 -0.3
v 0.2 0.5 -0.3
v 0.2 0.6 -0.3
v 0.6 0.5 -0.3
v 0.6 0.6 -0.3
v -1.3 0.3 -0.5
v -1.3 0.4 -0.5
v -1.2 0.4 -0.5
v -1.2 0.5 -0.5
v -1.1 0.3 -0.5
v -1.1 0.4 -0.5
v -1.1 0.5 -0.5
v -1.1 0.6 -0.5
v -1 0.4 -0.5
v -1 0.6 -0.5
v -0.9 0 -0.5
v -0.9 0.4 -0.5
v -0.9 0.5 -0.5
v -0.9 0.6 -0.5
v -0.8 0.3 -0.5
v -0.8 0.4 -0.5
v -0.8 0.5 -0.5
v -0.7 0.2 -0.5
v -0.7 0.3 -0.5
v -0.7 0.4 -0.5
v -0.7 0.6 -0.5
v -0.6 0.3 -0.5
v -0.6 0.6 -0.5
v -0.1 0.3 -0.5
v -0.1 0.4 -0.5
v 0.0999999 0.3 -0.5
v 0.0999999 0.4 -0.5
v 0.6 0.3 -0.5
v 0.6 0.6 -0.5
v 0.7 0.2 -0.5
v 0.7 0.3 -0.5
v 0.7 0.4 -0.5
v 0.7 0.6 -0.5
v 0.8 0.3 -0.5
v 0.8 0.4 -0.5
v 0.8 0.5 -0.5
v 0.9 0 -0.5
v 0.9 0.4 -0.5
v 0.9 0.5 -0.5
v 0.9 0.6 -0.5
v 1 0.4 -0.5
v 1 0.6 -0.5
v 1.1 0.3 -0.5
v 1.1 0.4 -0.5
v 1.1 0.5 -0.5
v 1.1 0.6 -0.5
v 1.2 0.4 -0.5
v 1.2 0.5 -0.5
v 1.3 0.3 -0.5
v 1.3 0.4 -0.5
v -1 0.4 -0.6
v -1 0.8 -0.6
v -0.9 0.5 -0.6
v -0.9 0.6 -0.6
v -0.9 0.7 -0.6
v -0.9 0.8 -0.6
v -0.8 0.3 -0.6
v -0.8 0.4 -0.6
v -0.8 0.5 -0.6
v -0.7 0.2 -0.6
v -0.7 0.3 -0.6
v -0.7 0.4 -0.6
v -0.7 0.6 -0.6
v -0.6 0.3 -0.6
v -0.6 0.6 -0.6
v -0.1 0.3 -0.6
v -0.1 0.4 -0.6
v 0.0999999 0.3 -0.6
v 0.0999999 0.4 -0.6
v 0.6 0.3 -0.6
v 0.6 0.6 -0.6
v 0.7 0.2 -0.6
v 0.7 0.3 -0.6
v 0.7 0.4 -0.6
v 0.7 0.6 -0.6
v 0.8 0.3 -0.6
v 0.8 0.4 -0.6
v 0.8 0.5 -0.6
v 0.9 0.5 -0.6
v 0.9 0.6 -0.6
v 0.9 0.7 -0.6
v 0.9 0.8 -0.6
v 1 0.4 -0.6
v 1 0.8 -0.6
v -0.9 0 0.5
v 0.9 0 0.5
v -0.9 0 -0.5
v 0.9 0 -0.5
v -0.7 0.2 -0.5
v 0.7 0.2 -0.5
v -0.7 0.2 -0.6
v 0.7 0.2 -0.6
v -0.8 0.3 0.6
v 0.8 0.3 0.6
v -1.3 0.3 0.5
v -1.1 0.3 0.5
v -0.8 0.3 0.5
v 0.8 0.3 0.5
v 1.1 0.3 0.5
v 1.3 0.3 0.5
v -1.3 0.3 -0.5
v -1.1 0.3 -0.5
v -0.8 0.3 -0.5
v -0.7 0.3 -0.5
v 0.7 0.3 -0.5
v 0.8 0.3 -0.5
v 1.1 0.3 -0.5
v 1.3 0.3 -0.5
v -0.8 0.3 -0.6
v -0.7 0.3 -0.6
v 0.7 0.3 -0.6
v 0.8 0.3 -0.6
v -1 0.4 0.6
v -0.8 0.4 0.6
v 0.8 0.4 0.6
v 1 0.4 0.6
v -1.1 0.4 0.5
v -1 0.4 0.5
v -0.9 0.4 0.5
v -0.8 0.4 0.5
v 0.8 0.4 0.5
v 0.9 0.4 0.5
v 1 0.4 0.5
v 1.1 0.4 0.5
v -1.1 0.4 -0.5
v -1 0.4 -0.5
v -0.9 0.4 -0.5
v -0.8 0.4 -0.5
v 0.8 0.4 -0.5
v 0.9 0.4 -0.5
v 1 0.4 -0.5
v 1.1 0.4 -0.5
v -1 0.4 -0.6
v -0.8 0.4 -0.6
v 0.8 0.4 -0.6
v 1 0.4 -0.6
v -0.9 0.6 0.6
v 0.9 0.6 0.6
v -0.9 0.6 0.5
v 0.9 0.6 0.5
v -0.9 0.6 -0.5
v -0.7 0.6 -0.5
v -0.6 0.6 -0.5
v 0.6 0.6 -0.5
v 0.7 0.6 -0.5
v 0.9 0.6 -0.5
v -0.9 0.6 -0.6
v -0.7 0.6 -0.6
v -0.6 0.6 -0.6
v 0.6 0.6 -0.6
v 0.7 0.6 -0.6
v 0.9 0.6 -0.6
v -1 0.7 0.5
v -0.9 0.7 0.5
v 0.9 0.7 0.5
v 1 0.7 0.5
v -1 0.7 -0.5
v -0.9 0.7 -0.5
v 0.9 0.7 -0.5
v 1 0.7 -0.5
v -0.6 0.3 -0.5
v -0.1 0.3 -0.5
v 0.0999999 0.3 -0.5
v 0.6 0.3 -0.5
v -0.6 0.3 -0.6
v -0.1 0.3 -0.6
v 0.0999999 0.3 -0.6
v 0.6 0.3 -0.6
v -0.8 0.4 0.6
v 0.8 0.4 0.6
v -1.3 0.4 0.5
v -1.2 0.4 0.5
v -0.8 0.4 0.5
v -0.7 0.4 0.5
v 0.7 0.4 0.5
v 0.8 0.4 0.5
v 1.2 0.4 0.5
v 1.3 0.4 0.5
v -1.3 0.4 -0.5
v -1.2 0.4 -0.5
v -0.8 0.4 -0.5
v -0.7 0.4 -0.5
v -0.1 0.4 -0.5
v 0.0999999 0.4 -0.5
v 0.7 0.4 -0.5
v 0.8 0.4 -0.5
v 1.2 0.4 -0.5
v 1.3 0.4 -0.5
v -0.8 0.4 -0.6
v -0.7 0.4 -0.6
v -0.1 0.4 -0.6
v 0.0999999 0.4 -0.6
v 0.7 0.4 -0.6
v 0.8 0.4 -0.6
v -0.9 0.5 0.6
v -0.8 0.5 0.6
v 0.8 0.5 0.6
v 0.9 0.5 0.6
v -1.2 0.5 0.5
v -1.1 0.5 0.5
v -0.9 0.5 0.5
v -0.8 0.5 0.5
v 0.8 0.5 0.5
v 0.9 0.5 0.5
v 1.1 0.5 0.5
v 1.2 0.5 0.5
v -0.7 0.5 0.4
v -0.1 0.5 0.4
v 0.0999999 0.5 0.4
v 0.7 0.5 0.4
v -0.6 0.5 0.3
v -0.2 0.5 0.3
v 0.2 0.5 0.3
v 0.6 0.5 0.3
v -0.6 0.5 -0.3
v -0.2 0.5 -0.3
v 0.2 0.5 -0.3
v 0.6 0.5 -0.3
v -0.7 0.5 -0.4
v -0.1 0.5 -0.4
v 0.0999999 0.5 -0.4
v 0.7 0.5 -0.4
v -1.2 0.5 -0.5
v -1.1 0.5 -0.5
v -0.9 0.5 -0.5
v -0.8 0.5 -0.5
v 0.8 0.5 -0.5
v 0.9 0.5 -0.5
v 1.1 0.5 -0.5
v 1.2 0.5 -0.5
v -0.9 0.5 -0.6
v -0.8 0.5 -0.6
v 0.8 0.5 -0.6
v 0.9 0.5 -0.6
v -1.1 0.6 0.5
v -1 0.6 0.5
v -0.9 0.6 0.5
v -0.8 0.6 0.5
v 0.8 0.6 0.5
v 0.9 0.6 0.5
v 1 0.6 0.5
v 1.1 0.6 0.5
v -0.8 0.6 0.4
v -0.7 0.6 0.4
v -0.1 0.6 0.4
v 0.0999999 0.6 0.4
v 0.7 0.6 0.4
v 0.8 0.6 0.4
v -0.6 0.6 0.3
v -0.2 0.6 0.3
v 0.2 0.6 0.3
v 0.6 0.6 0.3
v -0.6 0.6 -0.3
v -0.2 0.6 -0.3
v 0.2 0.6 -0.3
v 0.6 0.6 -0.3
v -0.8 0.6 -0.4
v -0.7 0.6 -0.4
v -0.1 0.6 -0.4
v 0.0999999 0.6 -0.4
v 0.7 0.6 -0.4
v 0.8 0.6 -0.4
v -1.1 0.6 -0.5
v -1 0.6 -0.5
v -0.9 0.6 -0.5
v -0.8 0.6 -0.5
v 0.8 0.6 -0.5
v 0.9 0.6 -0.5
v 1 0.6 -0.5
v 1.1 0.6 -0.5
v -0.9 0.7 0.6
v 0.9 0.7 0.6
v -0.8 0.7 0.5
v 0.8 0.7 0.5
v -0.8 0.7 -0.5
v 0.8 0.7 -0.5
v -0.9 0.7 -0.6
v 0.9 0.7 -0.6
v -1 0.8 0.6
v -0.9 0.8 0.6
v 0.9 0.8 0.6
v 1 0.8 0.6
v -1 0.8 -0.6
v -0.9 0.8 -0.6
v 0.9 0.8 -0.6
v 1 0.8 -0.6

# faces
f 3/2/1 2/2/1 1/2/1
f 4/2/1 2/2/1 3/2/1
f 7/2/1 6/2/1 5/2/1
f 8/2/1 6/2/1 7/2/1
f 11/2/1 10/2/1 9/2/1
f 12/2/1 10/2/1 11/2/1
f 17/4/1 14/4/1 13/4/1
f 18/4/1 16/4/1 15/4/1
f 19/4/1 17/4/1 13/4/1
f 20/4/1 16/4/1 18/4/1
f 21/4/1 19/4/1 13/4/1
f 21/4/1 20/4/1 19/4/1
f 22/4/1 16/4/1 20/4/1
f 22/4/1 20/4/1 21/4/1
f 25/4/1 24/4/1 23/4/1
f 26/4/1 24/4/1 25/4/1
f 29/4/1 28/4/1 27/4/1
f 30/4/1 28/4/1 29/4/1
f 35/4/1 32/4/1 31/4/1
f 36/4/1 32/4/1 35/4/1
f 37/4/1 34/4/1 33/4/1
f 38/4/1 34/4/1 37/4/1
f 41/4/1 40/4/1 39/4/1
f 42/4/1 40/4/1 41/4/1
f 45/4/1 44/4/1 43/4/1
f 46/4/1 44/4/1 45/4/1
f 49/1/1 48/1/1 47/1/1
f 50/1/1 48/1/1 49/1/1
f 53/3/1 52/3/1 51/3/1
f 54/3/1 52/3/1 53/3/1
f 57/4/1 56/4/1 55/4/1
f 58/4/1 56/4/1 57/4/1
f 61/1/1 60/1/1 59/1/1
f 62/1/1 60/1/1 61/1/1
f 65/4/1 64/4/1 63/4/1
f 66/4/1 64/4/1 65/4/1
f 69/4/1 68/4/1 67/4/1
f 70/4/1 68/4/1 69/4/1
f 75/4/1 72/4/1 71/4/1
f 76/4/1 72/4/1 75/4/1
f 77/4/1 74/4/1 73/4/1
f 78/4/1 74/4/1 77/4/1
f 83/4/1 80/4/1 79/4/1
f 83/4/1 82/4/1 81/4/1
f 83/4/1 81/4/1 80/4/1
f 84/4/1 82/4/1 83/4/1
f 89/4/1 86/4/1 85/4/1
f 90/4/1 86/4/1 89/4/1
f 91/4/1 88/4/1 87/4/1
f 92/4/1 88/4/1 91/4/1
f 95/4/1 94/4/1 93/4/1
f 96/4/1 94/4/1 95/4/1
f 99/2/1 98/2/1 97/2/1
f 100/2/1 98/2/1 99/2/1
f 101/2/2 102/2/2 103/2/2
f 103/2/2 102/2/2 104/2/2
f 105/4/2 106/4/2 109/4/2
f 109/4/2 106/4/2 110/4/2
f 107/4/2 108/4/2 111/4/2
f 111/4/2 108/4/2 112/4/2
f 113/4/2 114/4/2 115/4/2
f 115/4/2 114/4/2 116/4/2
f 117/4/2 118/4/2 121/4/2
f 121/4/2 118/4/2 122/4/2
f 119/4/2 120/4/2 123/4/2
f 123/4/2 120/4/2 124/4/2
f 125/4/2 126/4/2 129/4/2
f 127/4/2 128/4/2 129/4/2
f 126/4/2 127/4/2 129/4/2
f 129/4/2 128/4/2 130/4/2
f 131/4/2 132/4/2 133/4/2
f 133/4/2 132/4/2 134/4/2
f 135/4/2 136/4/2 137/4/2
f 137/4/2 136/4/2 138/4/2
f 139/1/2 140/1/2 141/1/2
f 141/1/2 140/1/2 142/1/2
f 143/3/2 144/3/2 145/3/2
f 145/3/2 144/3/2 146/3/2
f 147/4/2 148/4/2 149/4/2
f 149/4/2 148/4/2 150/4/2
f 151/1/2 152/1/2 153/1/2
f 153/1/2 152/1/2 154/1/2
f 155/4/2 156/4/2 157/4/2
f 157/4/2 156/4/2 158/4/2
f 159/4/2 160/4/2 161/4/2
f 161/4/2 160/4/2 162/4/2
f 163/4/2 164/4/2 167/4/2
f 167/4/2 164/4/2 168/4/2
f 165/4/2 166/4/2 169/4/2
f 169/4/2 166/4/2 170/4/2
f 171/4/2 172/4/2 173/4/2
f 173/4/2 172/4/2 174/4/2
f 175/4/2 176/4/2 177/4/2
f 177/4/2 176/4/2 178/4/2
f 179/4/2 180/4/2 183/4/2
f 181/4/2 182/4/2 184/4/2
f 179/4/2 183/4/2 185/4/2
f 184/4/2 182/4/2 186/4/2
f 179/4/2 185/4/2 187/4/2
f 185/4/2 186/4/2 187/4/2
f 186/4/2 182/4/2 188/4/2
f 187/4/2 186/4/2 188/4/2
f 189/2/2 190/2/2 191/2/2
f 191/2/2 190/2/2 192/2/2
f 193/2/2 194/2/2 195/2/2
f 195/2/2 194/2/2 196/2/2
f 197/2/2 198/2/2 199/2/2
f 199/2/2 198/2/2 200/2/2
f 203/4/3 202/4/3 201/4/3
f 204/4/3 202/4/3 203/4/3
f 205/4/3 202/4/3 204/4/3
f 206/4/3 202/4/3 205/4/3
f 208/4/3 203/4/3 201/4/3
f 209/4/3 203/4/3 208/4/3
f 210/4/3 208/4/3 207/4/3
f 211/4/3 208/4/3 210/4/3
f 213/4/3 212/4/3 211/4/3
f 214/4/3 205/4/3 204/4/3
f 215/4/3 205/4/3 214/4/3
f 217/4/3 213/4/3 211/4/3
f 217/4/3 216/4/3 215/4/3
f 217/4/3 215/4/3 214/4/3
f 217/4/3 214/4/3 213/4/3
f 218/4/3 216/4/3 217/4/3
f 221/2/3 220/2/3 219/2/3
f 223/2/3 221/2/3 219/2/3
f 223/2/3 222/2/3 221/2/3
f 224/2/3 222/2/3 223/2/3
f 225/2/3 222/2/3 224/2/3
f 227/2/3 226/2/3 225/2/3
f 227/2/3 225/2/3 224/2/3
f 228/2/3 226/2/3 227/2/3
f 233/4/3 230/4/3 229/4/3
f 234/4/3 230/4/3 233/4/3
f 235/2/3 232/2/3 231/2/3
f 236/2/3 235/2/3 234/2/3
f 237/2/3 232/2/3 235/2/3
f 237/2/3 235/2/3 236/2/3
f 238/4/3 237/4/3 236/4/3
f 239/2/3 232/2/3 237/2/3
f 239/4/3 237/4/3 238/4/3
f 240/4/3 233/4/3 229/4/3
f 241/2/3 239/2/3 238/2/3
f 242/2/3 232/2/3 239/2/3
f 242/2/3 239/2/3 241/2/3
f 243/4/3 241/4/3 240/4/3
f 243/4/3 240/4/3 229/4/3
f 244/4/3 241/4/3 243/4/3
f 245/2/3 232/2/3 242/2/3
f 246/2/3 232/2/3 245/2/3
f 250/2/3 248/2/3 247/2/3
f 251/2/3 248/2/3 250/2/3
f 252/2/3 248/2/3 251/2/3
f 253/2/3 250/2/3 249/2/3
f 253/2/3 251/2/3 250/2/3
f 254/2/3 251/2/3 253/2/3
f 255/2/3 253/2/3 249/2/3
f 256/2/3 253/2/3 255/2/3
f 259/1/3 258/1/3 257/1/3
f 260/1/3 258/1/3 259/1/3
f 263/1/3 262/1/3 261/1/3
f 264/1/3 262/1/3 263/1/3
f 267/2/3 266/2/3 265/2/3
f 268/2/3 266/2/3 267/2/3
f 271/2/3 270/2/3 269/2/3
f 272/2/3 270/2/3 271/2/3
f 275/4/3 274/4/3 273/4/3
f 276/4/3 274/4/3 275/4/3
f 279/4/3 278/4/3 277/4/3
f 280/4/3 278/4/3 279/4/3
f 283/4/3 282/4/3 281/4/3
f 284/4/3 282/4/3 283/4/3
f 285/4/4 286/4/4 287/4/4
f 287/4/4 286/4/4 288/4/4
f 289/4/4 290/4/4 291/4/4
f 291/4/4 290/4/4 292/4/4
f 293/4/4 294/4/4 295/4/4
f 295/4/4 294/4/4 296/4/4
f 297/2/4 298/2/4 299/2/4
f 299/2/4 298/2/4 300/2/4
f 301/2/4 302/2/4 303/2/4
f 303/2/4 302/2/4 304/2/4
f 305/1/4 306/1/4 307/1/4
f 307/1/4 306/1/4 308/1/4
f 309/1/4 310/1/4 311/1/4
f 311/1/4 310/1/4 312/1/4
f 313/2/4 314/2/4 315/2/4
f 313/2/4 315/2/4 317/2/4
f 315/2/4 316/2/4 317/2/4
f 317/2/4 316/2/4 318/2/4
f 318/2/4 316/2/4 319/2/4
f 319/2/4 320/2/4 321/2/4
f 318/2/4 319/2/4 321/2/4
f 321/2/4 320/2/4 322/2/4
f 323/4/4 324/4/4 327/4/4
f 327/4/4 324/4/4 328/4/4
f 325/2/4 326/2/4 329/2/4
f 323/4/4 327/4/4 330/4/4
f 330/4/4 327/4/4 331/4/4
f 328/2/4 329/2/4 332/2/4
f 329/2/4 326/2/4 333/2/4
f 332/2/4 329/2/4 333/2/4
f 334/2/4 335/2/4 336/2/4
f 336/2/4 335/2/4 337/2/4
f 337/2/4 335/2/4 339/2/4
f 338/2/4 339/2/4 340/2/4
f 339/2/4 335/2/4 341/2/4
f 340/2/4 339/2/4 341/2/4
f 323/4/4 330/4/4 342/4/4
f 342/4/4 343/4/4 346/4/4
f 344/2/4 345/2/4 347/2/4
f 347/2/4 345/2/4 348/2/4
f 323/4/4 342/4/4 349/4/4
f 342/4/4 346/4/4 349/4/4
f 346/4/4 347/4/4 349/4/4
f 349/4/4 347/4/4 350/4/4
f 348/2/4 345/2/4 351/2/4
f 351/2/4 345/2/4 352/2/4
f 353/2/4 354/2/4 356/2/4
f 356/2/4 354/2/4 357/2/4
f 357/2/4 354/2/4 358/2/4
f 355/2/4 356/2/4 359/2/4
f 356/2/4 357/2/4 359/2/4
f 359/2/4 357/2/4 360/2/4
f 355/2/4 359/2/4 361/2/4
f 361/2/4 359/2/4 362/2/4
f 363/4/4 364/4/4 365/4/4
f 365/4/4 364/4/4 366/4/4
f 366/4/4 364/4/4 367/4/4
f 367/4/4 364/4/4 368/4/4
f 363/4/4 365/4/4 370/4/4
f 370/4/4 365/4/4 371/4/4
f 369/4/4 370/4/4 373/4/4
f 373/4/4 370/4/4 374/4/4
f 366/4/4 367/4/4 375/4/4
f 373/4/4 374/4/4 376/4/4
f 374/4/4 375/4/4 376/4/4
f 372/4/4 373/4/4 376/4/4
f 375/4/4 367/4/4 377/4/4
f 376/4/4 375/4/4 377/4/4
f 372/4/4 376/4/4 378/4/4
f 372/4/4 378/4/4 380/4/4
f 378/3/4 379/3/4 380/3/4
f 380/3/4 379/3/4 381/3/4
f 372/4/4 380/4/4 382/4/4
f 377/4/4 367/4/4 383/4/4
f 372/4/4 382/4/4 384/4/4
f 382/4/4 383/4/4 384/4/4
f 384/4/4 383/4/4 385/4/4
f 385/4/4 383/4/4 386/4/4
f 383/4/4 367/4/4 387/4/4
f 386/4/4 383/4/4 387/4/4
f 385/4/4 386/4/4 388/4/4
f 388/4/4 386/4/4 389/4/4
f 389/4/4 390/4/4 391/4/4
f 387/4/4 367/4/4 392/4/4
f 392/4/4 367/4/4 393/4/4
f 389/4/4 391/4/4 395/4/4
f 393/4/4 394/4/4 395/4/4
f 392/4/4 393/4/4 395/4/4
f 391/4/4 392/4/4 395/4/4
f 395/4/4 394/4/4 396/4/4
f 399/4/5 398/4/5 397/4/5
f 400/4/5 398/4/5 399/4/5
f 403/4/5 402/4/5 401/4/5
f 404/4/5 402/4/5 403/4/5
f 409/4/5 406/4/5 405/4/5
f 410/4/5 406/4/5 409/4/5
f 413/2/5 408/2/5 407/2/5
f 414/2/5 408/2/5 413/2/5
f 419/2/5 412/2/5 411/2/5
f 420/2/5 412/2/5 419/2/5
f 421/4/5 416/4/5 415/4/5
f 422/4/5 416/4/5 421/4/5
f 423/4/5 418/4/5 417/4/5
f 424/4/5 418/4/5 423/4/5
f 430/4/5 426/4/5 425/4/5
f 431/4/5 426/4/5 430/4/5
f 432/4/5 426/4/5 431/4/5
f 433/4/5 428/4/5 427/4/5
f 434/4/5 428/4/5 433/4/5
f 435/4/5 428/4/5 434/4/5
f 437/2/5 430/2/5 429/2/5
f 438/4/5 431/4/5 430/4/5
f 438/2/5 430/2/5 437/2/5
f 439/4/5 431/4/5 438/4/5
f 442/4/5 435/4/5 434/4/5
f 443/2/5 436/2/5 435/2/5
f 443/4/5 435/4/5 442/4/5
f 444/2/5 436/2/5 443/2/5
f 445/4/5 440/4/5 439/4/5
f 445/4/5 439/4/5 438/4/5
f 446/4/5 440/4/5 445/4/5
f 447/4/5 442/4/5 441/4/5
f 447/4/5 443/4/5 442/4/5
f 448/4/5 443/4/5 447/4/5
f 451/4/5 450/4/5 449/4/5
f 452/4/5 450/4/5 451/4/5
f 459/4/5 454/4/5 453/4/5
f 460/4/5 454/4/5 459/4/5
f 461/4/5 456/4/5 455/4/5
f 462/4/5 456/4/5 461/4/5
f 463/4/5 458/4/5 457/4/5
f 464/4/5 458/4/5 463/4/5
f 469/4/5 466/4/5 465/4/5
f 470/4/5 466/4/5 469/4/5
f 471/4/5 468/4/5 467/4/5
f 472/4/5 468/4/5 471/4/5
f 473/4/6 474/4/6 477/4/6
f 477/4/6 474/4/6 478/4/6
f 475/4/6 476/4/6 479/4/6
f 479/4/6 476/4/6 480/4/6
f 481/4/6 482/4/6 485/4/6
f 485/4/6 482/4/6 486/4/6
f 486/4/6 482/4/6 487/4/6
f 487/4/6 482/4/6 488/4/6
f 483/2/6 484/2/6 491/2/6
f 491/2/6 484/2/6 492/2/6
f 489/2/6 490/2/6 499/2/6
f 499/2/6 490/2/6 500/2/6
f 493/4/6 494/4/6 501/4/6
f 501/4/6 494/4/6 502/4/6
f 495/3/6 496/3/6 503/3/6
f 503/3/6 496/3/6 504/3/6
f 497/4/6 498/4/6 505/4/6
f 505/4/6 498/4/6 506/4/6
f 507/4/6 508/4/6 513/4/6
f 513/4/6 508/4/6 514/4/6
f 509/4/6 510/4/6 515/4/6
f 515/4/6 510/4/6 516/4/6
f 519/4/6 520/4/6 523/4/6
f 523/4/6 520/4/6 524/4/6
f 521/4/6 522/4/6 525/4/6
f 525/4/6 522/4/6 526/4/6
f 519/4/6 523/4/6 527/4/6
f 524/4/6 520/4/6 528/4/6
f 521/4/6 525/4/6 529/4/6
f 526/4/6 522/4/6 530/4/6
f 519/4/6 527/4/6 531/4/6
f 527/4/6 528/4/6 531/4/6
f 528/4/6 520/4/6 532/4/6
f 531/4/6 528/4/6 532/4/6
f 529/4/6 530/4/6 533/4/6
f 521/4/6 529/4/6 533/4/6
f 530/4/6 522/4/6 534/4/6
f 533/4/6 530/4/6 534/4/6
f 511/2/6 512/2/6 535/2/6
f 535/2/6 512/2/6 536/2/6
f 517/2/6 518/2/6 541/2/6
f 541/2/6 518/2/6 542/2/6
f 537/4/6 538/4/6 543/4/6
f 543/4/6 538/4/6 544/4/6
f 539/4/6 540/4/6 545/4/6
f 545/4/6 540/4/6 546/4/6
f 550/2/6 551/2/6 555/2/6
f 555/2/6 551/2/6 556/2/6
f 556/2/6 551/2/6 557/2/6
f 557/2/6 551/2/6 558/2/6
f 558/2/6 551/2/6 559/2/6
f 559/2/6 551/2/6 560/2/6
f 561/1/6 562/1/6 565/1/6
f 565/1/6 562/1/6 566/1/6
f 563/1/6 564/1/6 567/1/6
f 567/1/6 564/1/6 568/1/6
f 555/4/6 556/4/6 569/4/6
f 569/4/6 556/4/6 570/4/6
f 557/4/6 558/4/6 571/4/6
f 571/4/6 558/4/6 572/4/6
f 559/4/6 560/4/6 573/4/6
f 573/4/6 560/4/6 574/4/6
f 547/2/6 548/2/6 575/2/6
f 548/2/6 549/2/6 575/2/6
f 575/2/6 549/2/6 576/2/6
f 576/2/6 549/2/6 577/2/6
f 573/2/6 574/2/6 578/2/6
f 571/2/6 572/2/6 578/2/6
f 569/2/6 570/2/6 578/2/6
f 570/2/6 571/2/6 578/2/6
f 572/2/6 573/2/6 578/2/6
f 578/2/6 574/2/6 579/2/6
f 553/2/6 554/2/6 580/2/6
f 552/2/6 553/2/6 580/2/6
f 580/2/6 554/2/6 581/2/6
f 581/2/6 554/2/6 582/2/6
f 583/4/6 584/4/6 585/4/6
f 585/4/6 584/4/6 586/4/6
f 583/4/6 585/4/6 587/4/6
f 586/4/6 584/4/6 588/4/6
f 583/4/6 587/4/6 589/4/6
f 587/4/6 588/4/6 589/4/6
f 588/4/6 584/4/6 590/4/6
f 589/4/6 588/4/6 590/4/6
f 591/4/6 592/4/6 595/4/6
f 595/4/6 592/4/6 596/4/6
f 593/4/6 594/4/6 597/4/6
f 597/4/6 594/4/6 598/4/6
