# MagicaVoxel @ Ephtracy

# group
o 

# material
mtllib Cactus.mtl
usemtl palette

# normals
vn -1 0 0
vn 1 0 0
vn 0 0 1
vn 0 0 -1
vn 0 -1 0
vn 0 1 0

# texcoords
vt 0.0566406 0.5
vt 0.0605469 0.5

# verts
v -0.3 0.2 2.23517e-008
v -0.3 0.2 -0.1
v -0.3 0.3 2.23517e-008
v -0.3 0.3 -0.1
v -0.3 0.4 2.23517e-008
v -0.3 0.4 -0.1
v -0.1 0 2.23517e-008
v -0.1 0 -0.1
v -0.1 0.2 2.23517e-008
v -0.1 0.2 -0.1
v -0.1 0.3 2.23517e-008
v -0.1 0.3 -0.1
v -0.1 0.4 2.23517e-008
v -0.1 0.4 -0.1
v -0.1 0.7 2.23517e-008
v -0.1 0.7 -0.1
v -0.1 0.8 2.23517e-008
v -0.1 0.8 -0.1
v 0.1 0.5 2.23517e-008
v 0.1 0.5 -0.1
v 0.1 0.6 2.23517e-008
v 0.1 0.6 -0.1
v -0.2 0.3 2.23517e-008
v -0.2 0.3 -0.1
v -0.2 0.4 2.23517e-008
v -0.2 0.4 -0.1
v 2.98023e-008 0 2.23517e-008
v 2.98023e-008 0 -0.1
v 2.98023e-008 0.4 2.23517e-008
v 2.98023e-008 0.4 -0.1
v 2.98023e-008 0.5 2.23517e-008
v 2.98023e-008 0.5 -0.1
v 2.98023e-008 0.7 2.23517e-008
v 2.98023e-008 0.7 -0.1
v 2.98023e-008 0.8 2.23517e-008
v 2.98023e-008 0.8 -0.1
v 0.2 0.4 2.23517e-008
v 0.2 0.4 -0.1
v 0.2 0.6 2.23517e-008
v 0.2 0.6 -0.1
v -0.3 0.2 2.23517e-008
v -0.3 0.3 2.23517e-008
v -0.3 0.4 2.23517e-008
v -0.2 0.2 2.23517e-008
v -0.2 0.3 2.23517e-008
v -0.2 0.4 2.23517e-008
v -0.1 0 2.23517e-008
v -0.1 0.2 2.23517e-008
v -0.1 0.3 2.23517e-008
v -0.1 0.4 2.23517e-008
v -0.1 0.7 2.23517e-008
v -0.1 0.8 2.23517e-008
v 2.98023e-008 0 2.23517e-008
v 2.98023e-008 0.4 2.23517e-008
v 2.98023e-008 0.5 2.23517e-008
v 2.98023e-008 0.7 2.23517e-008
v 2.98023e-008 0.8 2.23517e-008
v 0.1 0.5 2.23517e-008
v 0.1 0.6 2.23517e-008
v 0.2 0.4 2.23517e-008
v 0.2 0.6 2.23517e-008
v -0.3 0.2 -0.1
v -0.3 0.3 -0.1
v -0.3 0.4 -0.1
v -0.2 0.2 -0.1
v -0.2 0.3 -0.1
v -0.2 0.4 -0.1
v -0.1 0 -0.1
v -0.1 0.2 -0.1
v -0.1 0.3 -0.1
v -0.1 0.4 -0.1
v -0.1 0.7 -0.1
v -0.1 0.8 -0.1
v 2.98023e-008 0 -0.1
v 2.98023e-008 0.4 -0.1
v 2.98023e-008 0.5 -0.1
v 2.98023e-008 0.7 -0.1
v 2.98023e-008 0.8 -0.1
v 0.1 0.5 -0.1
v 0.1 0.6 -0.1
v 0.2 0.4 -0.1
v 0.2 0.6 -0.1
v -0.1 0 2.23517e-008
v 2.98023e-008 0 2.23517e-008
v -0.1 0 -0.1
v 2.98023e-008 0 -0.1
v -0.3 0.2 2.23517e-008
v -0.2 0.2 2.23517e-008
v -0.1 0.2 2.23517e-008
v -0.3 0.2 -0.1
v -0.2 0.2 -0.1
v -0.1 0.2 -0.1
v 2.98023e-008 0.4 2.23517e-008
v 0.2 0.4 2.23517e-008
v 2.98023e-008 0.4 -0.1
v 0.2 0.4 -0.1
v -0.2 0.3 2.23517e-008
v -0.1 0.3 2.23517e-008
v -0.2 0.3 -0.1
v -0.1 0.3 -0.1
v -0.3 0.4 2.23517e-008
v -0.2 0.4 2.23517e-008
v -0.3 0.4 -0.1
v -0.2 0.4 -0.1
v 2.98023e-008 0.5 2.23517e-008
v 0.1 0.5 2.23517e-008
v 2.98023e-008 0.5 -0.1
v 0.1 0.5 -0.1
v 0.1 0.6 2.23517e-008
v 0.2 0.6 2.23517e-008
v 0.1 0.6 -0.1
v 0.2 0.6 -0.1
v -0.1 0.8 2.23517e-008
v 2.98023e-008 0.8 2.23517e-008
v -0.1 0.8 -0.1
v 2.98023e-008 0.8 -0.1

# faces
f 3/1/1 2/1/1 1/1/1
f 4/1/1 2/1/1 3/1/1
f 5/2/1 4/2/1 3/2/1
f 6/2/1 4/2/1 5/2/1
f 9/2/1 8/2/1 7/2/1
f 10/2/1 8/2/1 9/2/1
f 13/2/1 12/2/1 11/2/1
f 14/2/1 12/2/1 13/2/1
f 15/1/1 14/1/1 13/1/1
f 16/1/1 14/1/1 15/1/1
f 17/2/1 16/2/1 15/2/1
f 18/2/1 16/2/1 17/2/1
f 21/2/1 20/2/1 19/2/1
f 22/2/1 20/2/1 21/2/1
f 23/2/2 24/2/2 25/2/2
f 25/2/2 24/2/2 26/2/2
f 27/2/2 28/2/2 29/2/2
f 29/2/2 28/2/2 30/2/2
f 31/1/2 32/1/2 33/1/2
f 33/1/2 32/1/2 34/1/2
f 33/2/2 34/2/2 35/2/2
f 35/2/2 34/2/2 36/2/2
f 37/2/2 38/2/2 39/2/2
f 39/2/2 38/2/2 40/2/2
f 44/1/3 42/1/3 41/1/3
f 45/2/3 43/2/3 42/2/3
f 45/1/3 42/1/3 44/1/3
f 46/2/3 43/2/3 45/2/3
f 48/2/3 45/2/3 44/2/3
f 49/2/3 45/2/3 48/2/3
f 53/2/3 50/2/3 49/2/3
f 53/2/3 48/2/3 47/2/3
f 53/2/3 49/2/3 48/2/3
f 54/1/3 51/1/3 50/1/3
f 54/2/3 50/2/3 53/2/3
f 55/1/3 51/1/3 54/1/3
f 56/2/3 52/2/3 51/2/3
f 56/1/3 51/1/3 55/1/3
f 57/2/3 52/2/3 56/2/3
f 58/2/3 55/2/3 54/2/3
f 60/2/3 58/2/3 54/2/3
f 60/2/3 59/2/3 58/2/3
f 61/2/3 59/2/3 60/2/3
f 62/1/4 63/1/4 65/1/4
f 63/2/4 64/2/4 66/2/4
f 65/1/4 63/1/4 66/1/4
f 66/2/4 64/2/4 67/2/4
f 65/2/4 66/2/4 69/2/4
f 69/2/4 66/2/4 70/2/4
f 70/2/4 71/2/4 74/2/4
f 68/2/4 69/2/4 74/2/4
f 69/2/4 70/2/4 74/2/4
f 71/1/4 72/1/4 75/1/4
f 74/2/4 71/2/4 75/2/4
f 75/1/4 72/1/4 76/1/4
f 72/2/4 73/2/4 77/2/4
f 76/1/4 72/1/4 77/1/4
f 77/2/4 73/2/4 78/2/4
f 75/2/4 76/2/4 79/2/4
f 75/2/4 79/2/4 81/2/4
f 79/2/4 80/2/4 81/2/4
f 81/2/4 80/2/4 82/2/4
f 85/2/5 84/2/5 83/2/5
f 86/2/5 84/2/5 85/2/5
f 90/1/5 88/1/5 87/1/5
f 91/2/5 89/2/5 88/2/5
f 91/1/5 88/1/5 90/1/5
f 92/2/5 89/2/5 91/2/5
f 95/2/5 94/2/5 93/2/5
f 96/2/5 94/2/5 95/2/5
f 97/2/6 98/2/6 99/2/6
f 99/2/6 98/2/6 100/2/6
f 101/2/6 102/2/6 103/2/6
f 103/2/6 102/2/6 104/2/6
f 105/2/6 106/2/6 107/2/6
f 107/2/6 106/2/6 108/2/6
f 109/2/6 110/2/6 111/2/6
f 111/2/6 110/2/6 112/2/6
f 113/2/6 114/2/6 115/2/6
f 115/2/6 114/2/6 116/2/6
