# MagicaVoxel @ Ephtracy

# group
o 

# material
mtllib Crate.mtl
usemtl palette

# normals
vn -1 0 0
vn 1 0 0
vn 0 0 1
vn 0 0 -1
vn 0 -1 0
vn 0 1 0

# texcoords
vt 0.224609 0.5
vt 0.228516 0.5

# verts
v -1 1 1
v -1 1 0.9
v -1 1 0.8
v -1 1 -0.8
v -1 1 -0.9
v -1 1 -1
v -1 1.1 1
v -1 1.1 0.9
v -1 1.1 0.8
v -1 1.1 -0.8
v -1 1.1 -0.9
v -1 1.1 -1
v -1 1.2 1
v -1 1.2 0.9
v -1 1.2 0.8
v -1 1.2 -0.8
v -1 1.2 -0.9
v -1 1.2 -1
v -1 1.3 0.7
v -1 1.3 -0.7
v -1 2.7 0.7
v -1 2.7 -0.7
v -1 2.8 1
v -1 2.8 0.9
v -1 2.8 0.8
v -1 2.8 -0.8
v -1 2.8 -0.9
v -1 2.8 -1
v -1 2.9 1
v -1 2.9 0.9
v -1 2.9 0.8
v -1 2.9 -0.8
v -1 2.9 -0.9
v -1 2.9 -1
v -1 3 1
v -1 3 0.9
v -1 3 0.8
v -1 3 -0.8
v -1 3 -0.9
v -1 3 -1
v -0.8 1.3 0.7
v -0.8 1.3 0.2
v -0.8 1.3 -0.2
v -0.8 1.3 -0.7
v -0.8 1.8 0.7
v -0.8 1.8 0.2
v -0.8 1.8 -0.2
v -0.8 1.8 -0.7
v -0.8 2.2 0.7
v -0.8 2.2 0.2
v -0.8 2.2 -0.2
v -0.8 2.2 -0.7
v -0.8 2.7 0.7
v -0.8 2.7 0.2
v -0.8 2.7 -0.2
v -0.8 2.7 -0.7
v 0.7 1 0.7
v 0.7 1 -0.7
v 0.7 1.2 0.7
v 0.7 1.2 0.2
v 0.7 1.2 -0.2
v 0.7 1.2 -0.7
v 0.7 1.3 1
v 0.7 1.3 0.8
v 0.7 1.3 -0.8
v 0.7 1.3 -1
v 0.7 1.8 0.8
v 0.7 1.8 -0.8
v 0.7 2.2 0.8
v 0.7 2.2 -0.8
v 0.7 2.7 1
v 0.7 2.7 0.8
v 0.7 2.7 -0.8
v 0.7 2.7 -1
v 0.7 2.8 0.7
v 0.7 2.8 0.2
v 0.7 2.8 -0.2
v 0.7 2.8 -0.7
v 0.7 3 0.7
v 0.7 3 -0.7
v -0.7 1 0.7
v -0.7 1 -0.7
v -0.7 1.2 0.7
v -0.7 1.2 0.2
v -0.7 1.2 -0.2
v -0.7 1.2 -0.7
v -0.7 1.3 1
v -0.7 1.3 0.8
v -0.7 1.3 -0.8
v -0.7 1.3 -1
v -0.7 1.8 0.8
v -0.7 1.8 -0.8
v -0.7 2.2 0.8
v -0.7 2.2 -0.8
v -0.7 2.7 1
v -0.7 2.7 0.8
v -0.7 2.7 -0.8
v -0.7 2.7 -1
v -0.7 2.8 0.7
v -0.7 2.8 0.2
v -0.7 2.8 -0.2
v -0.7 2.8 -0.7
v -0.7 3 0.7
v -0.7 3 -0.7
v 0.8 1.3 0.7
v 0.8 1.3 0.2
v 0.8 1.3 -0.2
v 0.8 1.3 -0.7
v 0.8 1.8 0.7
v 0.8 1.8 0.2
v 0.8 1.8 -0.2
v 0.8 1.8 -0.7
v 0.8 2.2 0.7
v 0.8 2.2 0.2
v 0.8 2.2 -0.2
v 0.8 2.2 -0.7
v 0.8 2.7 0.7
v 0.8 2.7 0.2
v 0.8 2.7 -0.2
v 0.8 2.7 -0.7
v 1 1 1
v 1 1 0.9
v 1 1 0.8
v 1 1 -0.8
v 1 1 -0.9
v 1 1 -1
v 1 1.1 1
v 1 1.1 0.9
v 1 1.1 0.8
v 1 1.1 -0.8
v 1 1.1 -0.9
v 1 1.1 -1
v 1 1.2 1
v 1 1.2 0.9
v 1 1.2 0.8
v 1 1.2 -0.8
v 1 1.2 -0.9
v 1 1.2 -1
v 1 1.3 0.7
v 1 1.3 -0.7
v 1 2.7 0.7
v 1 2.7 -0.7
v 1 2.8 1
v 1 2.8 0.9
v 1 2.8 0.8
v 1 2.8 -0.8
v 1 2.8 -0.9
v 1 2.8 -1
v 1 2.9 1
v 1 2.9 0.9
v 1 2.9 0.8
v 1 2.9 -0.8
v 1 2.9 -0.9
v 1 2.9 -1
v 1 3 1
v 1 3 0.9
v 1 3 0.8
v 1 3 -0.8
v 1 3 -0.9
v 1 3 -1
v -1 1 1
v -1 1.1 1
v -1 1.2 1
v -1 2.8 1
v -1 2.9 1
v -1 3 1
v -0.9 1 1
v -0.9 1.1 1
v -0.9 1.2 1
v -0.9 2.8 1
v -0.9 2.9 1
v -0.9 3 1
v -0.8 1 1
v -0.8 1.1 1
v -0.8 1.2 1
v -0.8 2.8 1
v -0.8 2.9 1
v -0.8 3 1
v -0.7 1.3 1
v -0.7 2.7 1
v 0.7 1.3 1
v 0.7 2.7 1
v 0.8 1 1
v 0.8 1.1 1
v 0.8 1.2 1
v 0.8 2.8 1
v 0.8 2.9 1
v 0.8 3 1
v 0.9 1 1
v 0.9 1.1 1
v 0.9 1.2 1
v 0.9 2.8 1
v 0.9 2.9 1
v 0.9 3 1
v 1 1 1
v 1 1.1 1
v 1 1.2 1
v 1 2.8 1
v 1 2.9 1
v 1 3 1
v -0.7 1.3 0.8
v -0.7 1.8 0.8
v -0.7 2.2 0.8
v -0.7 2.7 0.8
v -0.2 1.3 0.8
v -0.2 1.8 0.8
v -0.2 2.2 0.8
v -0.2 2.7 0.8
v 0.2 1.3 0.8
v 0.2 1.8 0.8
v 0.2 2.2 0.8
v 0.2 2.7 0.8
v 0.7 1.3 0.8
v 0.7 1.8 0.8
v 0.7 2.2 0.8
v 0.7 2.7 0.8
v -1 1.3 -0.7
v -1 2.7 -0.7
v -0.8 1.3 -0.7
v -0.8 1.8 -0.7
v -0.8 2.2 -0.7
v -0.8 2.7 -0.7
v -0.7 1 -0.7
v -0.7 1.2 -0.7
v -0.7 2.8 -0.7
v -0.7 3 -0.7
v -0.2 1.2 -0.7
v -0.2 2.8 -0.7
v 0.2 1.2 -0.7
v 0.2 2.8 -0.7
v 0.7 1 -0.7
v 0.7 1.2 -0.7
v 0.7 2.8 -0.7
v 0.7 3 -0.7
v 0.8 1.3 -0.7
v 0.8 1.8 -0.7
v 0.8 2.2 -0.7
v 0.8 2.7 -0.7
v 1 1.3 -0.7
v 1 2.7 -0.7
v -1 1.3 0.7
v -1 2.7 0.7
v -0.8 1.3 0.7
v -0.8 1.8 0.7
v -0.8 2.2 0.7
v -0.8 2.7 0.7
v -0.7 1 0.7
v -0.7 1.2 0.7
v -0.7 2.8 0.7
v -0.7 3 0.7
v -0.2 1.2 0.7
v -0.2 2.8 0.7
v 0.2 1.2 0.7
v 0.2 2.8 0.7
v 0.7 1 0.7
v 0.7 1.2 0.7
v 0.7 2.8 0.7
v 0.7 3 0.7
v 0.8 1.3 0.7
v 0.8 1.8 0.7
v 0.8 2.2 0.7
v 0.8 2.7 0.7
v 1 1.3 0.7
v 1 2.7 0.7
v -0.7 1.3 -0.8
v -0.7 1.8 -0.8
v -0.7 2.2 -0.8
v -0.7 2.7 -0.8
v -0.2 1.3 -0.8
v -0.2 1.8 -0.8
v -0.2 2.2 -0.8
v -0.2 2.7 -0.8
v 0.2 1.3 -0.8
v 0.2 1.8 -0.8
v 0.2 2.2 -0.8
v 0.2 2.7 -0.8
v 0.7 1.3 -0.8
v 0.7 1.8 -0.8
v 0.7 2.2 -0.8
v 0.7 2.7 -0.8
v -1 1 -1
v -1 1.1 -1
v -1 1.2 -1
v -1 2.8 -1
v -1 2.9 -1
v -1 3 -1
v -0.9 1 -1
v -0.9 1.1 -1
v -0.9 1.2 -1
v -0.9 2.8 -1
v -0.9 2.9 -1
v -0.9 3 -1
v -0.8 1 -1
v -0.8 1.1 -1
v -0.8 1.2 -1
v -0.8 2.8 -1
v -0.8 2.9 -1
v -0.8 3 -1
v -0.7 1.3 -1
v -0.7 2.7 -1
v 0.7 1.3 -1
v 0.7 2.7 -1
v 0.8 1 -1
v 0.8 1.1 -1
v 0.8 1.2 -1
v 0.8 2.8 -1
v 0.8 2.9 -1
v 0.8 3 -1
v 0.9 1 -1
v 0.9 1.1 -1
v 0.9 1.2 -1
v 0.9 2.8 -1
v 0.9 2.9 -1
v 0.9 3 -1
v 1 1 -1
v 1 1.1 -1
v 1 1.2 -1
v 1 2.8 -1
v 1 2.9 -1
v 1 3 -1
v -1 1 1
v -0.9 1 1
v -0.8 1 1
v 0.8 1 1
v 0.9 1 1
v 1 1 1
v -1 1 0.9
v -0.9 1 0.9
v -0.8 1 0.9
v 0.8 1 0.9
v 0.9 1 0.9
v 1 1 0.9
v -1 1 0.8
v -0.9 1 0.8
v -0.8 1 0.8
v 0.8 1 0.8
v 0.9 1 0.8
v 1 1 0.8
v -0.7 1 0.7
v 0.7 1 0.7
v -0.7 1 -0.7
v 0.7 1 -0.7
v -1 1 -0.8
v -0.9 1 -0.8
v -0.8 1 -0.8
v 0.8 1 -0.8
v 0.9 1 -0.8
v 1 1 -0.8
v -1 1 -0.9
v -0.9 1 -0.9
v -0.8 1 -0.9
v 0.8 1 -0.9
v 0.9 1 -0.9
v 1 1 -0.9
v -1 1 -1
v -0.9 1 -1
v -0.8 1 -1
v 0.8 1 -1
v 0.9 1 -1
v 1 1 -1
v -0.7 1.2 0.7
v -0.2 1.2 0.7
v 0.2 1.2 0.7
v 0.7 1.2 0.7
v -0.7 1.2 0.2
v -0.2 1.2 0.2
v 0.2 1.2 0.2
v 0.7 1.2 0.2
v -0.7 1.2 -0.2
v -0.2 1.2 -0.2
v 0.2 1.2 -0.2
v 0.7 1.2 -0.2
v -0.7 1.2 -0.7
v -0.2 1.2 -0.7
v 0.2 1.2 -0.7
v 0.7 1.2 -0.7
v -0.7 2.7 1
v 0.7 2.7 1
v -0.7 2.7 0.8
v -0.2 2.7 0.8
v 0.2 2.7 0.8
v 0.7 2.7 0.8
v -1 2.7 0.7
v -0.8 2.7 0.7
v 0.8 2.7 0.7
v 1 2.7 0.7
v -0.8 2.7 0.2
v 0.8 2.7 0.2
v -0.8 2.7 -0.2
v 0.8 2.7 -0.2
v -1 2.7 -0.7
v -0.8 2.7 -0.7
v 0.8 2.7 -0.7
v 1 2.7 -0.7
v -0.7 2.7 -0.8
v -0.2 2.7 -0.8
v 0.2 2.7 -0.8
v 0.7 2.7 -0.8
v -0.7 2.7 -1
v 0.7 2.7 -1
v -0.7 1.3 1
v 0.7 1.3 1
v -0.7 1.3 0.8
v -0.2 1.3 0.8
v 0.2 1.3 0.8
v 0.7 1.3 0.8
v -1 1.3 0.7
v -0.8 1.3 0.7
v 0.8 1.3 0.7
v 1 1.3 0.7
v -0.8 1.3 0.2
v 0.8 1.3 0.2
v -0.8 1.3 -0.2
v 0.8 1.3 -0.2
v -1 1.3 -0.7
v -0.8 1.3 -0.7
v 0.8 1.3 -0.7
v 1 1.3 -0.7
v -0.7 1.3 -0.8
v -0.2 1.3 -0.8
v 0.2 1.3 -0.8
v 0.7 1.3 -0.8
v -0.7 1.3 -1
v 0.7 1.3 -1
v -0.7 2.8 0.7
v -0.2 2.8 0.7
v 0.2 2.8 0.7
v 0.7 2.8 0.7
v -0.7 2.8 0.2
v -0.2 2.8 0.2
v 0.2 2.8 0.2
v 0.7 2.8 0.2
v -0.7 2.8 -0.2
v -0.2 2.8 -0.2
v 0.2 2.8 -0.2
v 0.7 2.8 -0.2
v -0.7 2.8 -0.7
v -0.2 2.8 -0.7
v 0.2 2.8 -0.7
v 0.7 2.8 -0.7
v -1 3 1
v -0.9 3 1
v -0.8 3 1
v 0.8 3 1
v 0.9 3 1
v 1 3 1
v -1 3 0.9
v -0.9 3 0.9
v -0.8 3 0.9
v 0.8 3 0.9
v 0.9 3 0.9
v 1 3 0.9
v -1 3 0.8
v -0.9 3 0.8
v -0.8 3 0.8
v 0.8 3 0.8
v 0.9 3 0.8
v 1 3 0.8
v -0.7 3 0.7
v 0.7 3 0.7
v -0.7 3 -0.7
v 0.7 3 -0.7
v -1 3 -0.8
v -0.9 3 -0.8
v -0.8 3 -0.8
v 0.8 3 -0.8
v 0.9 3 -0.8
v 1 3 -0.8
v -1 3 -0.9
v -0.9 3 -0.9
v -0.8 3 -0.9
v 0.8 3 -0.9
v 0.9 3 -0.9
v 1 3 -0.9
v -1 3 -1
v -0.9 3 -1
v -0.8 3 -1
v 0.8 3 -1
v 0.9 3 -1
v 1 3 -1

# faces
f 7/1/1 2/1/1 1/1/1
f 8/2/1 3/2/1 2/2/1
f 8/1/1 2/1/1 7/1/1
f 9/1/1 4/1/1 3/1/1
f 9/2/1 3/2/1 8/2/1
f 10/2/1 5/2/1 4/2/1
f 10/1/1 4/1/1 9/1/1
f 11/1/1 6/1/1 5/1/1
f 11/2/1 5/2/1 10/2/1
f 12/1/1 6/1/1 11/1/1
f 13/2/1 10/2/1 9/2/1
f 13/2/1 8/2/1 7/2/1
f 13/2/1 12/2/1 11/2/1
f 13/2/1 11/2/1 10/2/1
f 13/2/1 9/2/1 8/2/1
f 14/2/1 12/2/1 13/2/1
f 15/2/1 12/2/1 14/2/1
f 16/2/1 12/2/1 15/2/1
f 17/2/1 12/2/1 16/2/1
f 18/2/1 12/2/1 17/2/1
f 19/1/1 16/1/1 15/1/1
f 20/1/1 16/1/1 19/1/1
f 21/1/1 19/1/1 15/1/1
f 22/1/1 16/1/1 20/1/1
f 23/1/1 14/1/1 13/1/1
f 24/2/1 15/2/1 14/2/1
f 24/1/1 14/1/1 23/1/1
f 25/1/1 22/1/1 21/1/1
f 25/2/1 15/2/1 24/2/1
f 25/1/1 21/1/1 15/1/1
f 26/2/1 17/2/1 16/2/1
f 26/1/1 22/1/1 25/1/1
f 26/1/1 16/1/1 22/1/1
f 27/1/1 18/1/1 17/1/1
f 27/2/1 17/2/1 26/2/1
f 28/1/1 18/1/1 27/1/1
f 29/2/1 24/2/1 23/2/1
f 29/2/1 25/2/1 24/2/1
f 29/2/1 28/2/1 27/2/1
f 29/2/1 27/2/1 26/2/1
f 29/2/1 26/2/1 25/2/1
f 30/2/1 28/2/1 29/2/1
f 31/2/1 28/2/1 30/2/1
f 32/2/1 28/2/1 31/2/1
f 33/2/1 28/2/1 32/2/1
f 34/2/1 28/2/1 33/2/1
f 35/1/1 30/1/1 29/1/1
f 36/2/1 31/2/1 30/2/1
f 36/1/1 30/1/1 35/1/1
f 37/1/1 32/1/1 31/1/1
f 37/2/1 31/2/1 36/2/1
f 38/2/1 33/2/1 32/2/1
f 38/1/1 32/1/1 37/1/1
f 39/1/1 34/1/1 33/1/1
f 39/2/1 33/2/1 38/2/1
f 40/1/1 34/1/1 39/1/1
f 45/1/1 42/1/1 41/1/1
f 46/2/1 43/2/1 42/2/1
f 46/1/1 42/1/1 45/1/1
f 47/1/1 44/1/1 43/1/1
f 47/2/1 43/2/1 46/2/1
f 48/1/1 44/1/1 47/1/1
f 49/2/1 46/2/1 45/2/1
f 49/2/1 47/2/1 46/2/1
f 49/2/1 48/2/1 47/2/1
f 50/2/1 48/2/1 49/2/1
f 51/2/1 48/2/1 50/2/1
f 52/2/1 48/2/1 51/2/1
f 53/1/1 50/1/1 49/1/1
f 54/2/1 51/2/1 50/2/1
f 54/1/1 50/1/1 53/1/1
f 55/1/1 52/1/1 51/1/1
f 55/2/1 51/2/1 54/2/1
f 56/1/1 52/1/1 55/1/1
f 59/1/1 58/1/1 57/1/1
f 60/1/1 58/1/1 59/1/1
f 61/1/1 58/1/1 60/1/1
f 62/1/1 58/1/1 61/1/1
f 67/1/1 64/1/1 63/1/1
f 68/1/1 66/1/1 65/1/1
f 69/1/1 67/1/1 63/1/1
f 70/1/1 66/1/1 68/1/1
f 71/1/1 69/1/1 63/1/1
f 72/1/1 69/1/1 71/1/1
f 73/1/1 66/1/1 70/1/1
f 74/1/1 66/1/1 73/1/1
f 79/1/1 76/1/1 75/1/1
f 79/1/1 78/1/1 77/1/1
f 79/1/1 77/1/1 76/1/1
f 80/1/1 78/1/1 79/1/1
f 81/1/2 82/1/2 83/1/2
f 83/1/2 82/1/2 84/1/2
f 84/1/2 82/1/2 85/1/2
f 85/1/2 82/1/2 86/1/2
f 87/1/2 88/1/2 91/1/2
f 89/1/2 90/1/2 92/1/2
f 87/1/2 91/1/2 93/1/2
f 92/1/2 90/1/2 94/1/2
f 87/1/2 93/1/2 95/1/2
f 95/1/2 93/1/2 96/1/2
f 94/1/2 90/1/2 97/1/2
f 97/1/2 90/1/2 98/1/2
f 99/1/2 100/1/2 103/1/2
f 101/1/2 102/1/2 103/1/2
f 100/1/2 101/1/2 103/1/2
f 103/1/2 102/1/2 104/1/2
f 105/1/2 106/1/2 109/1/2
f 106/2/2 107/2/2 110/2/2
f 109/1/2 106/1/2 110/1/2
f 107/1/2 108/1/2 111/1/2
f 110/2/2 107/2/2 111/2/2
f 111/1/2 108/1/2 112/1/2
f 109/2/2 110/2/2 113/2/2
f 110/2/2 111/2/2 113/2/2
f 111/2/2 112/2/2 113/2/2
f 113/2/2 112/2/2 114/2/2
f 114/2/2 112/2/2 115/2/2
f 115/2/2 112/2/2 116/2/2
f 113/1/2 114/1/2 117/1/2
f 114/2/2 115/2/2 118/2/2
f 117/1/2 114/1/2 118/1/2
f 115/1/2 116/1/2 119/1/2
f 118/2/2 115/2/2 119/2/2
f 119/1/2 116/1/2 120/1/2
f 121/1/2 122/1/2 127/1/2
f 122/2/2 123/2/2 128/2/2
f 127/1/2 122/1/2 128/1/2
f 123/1/2 124/1/2 129/1/2
f 128/2/2 123/2/2 129/2/2
f 124/2/2 125/2/2 130/2/2
f 129/1/2 124/1/2 130/1/2
f 125/1/2 126/1/2 131/1/2
f 130/2/2 125/2/2 131/2/2
f 131/1/2 126/1/2 132/1/2
f 129/2/2 130/2/2 133/2/2
f 127/2/2 128/2/2 133/2/2
f 131/2/2 132/2/2 133/2/2
f 130/2/2 131/2/2 133/2/2
f 128/2/2 129/2/2 133/2/2
f 133/2/2 132/2/2 134/2/2
f 134/2/2 132/2/2 135/2/2
f 135/2/2 132/2/2 136/2/2
f 136/2/2 132/2/2 137/2/2
f 137/2/2 132/2/2 138/2/2
f 135/1/2 136/1/2 139/1/2
f 139/1/2 136/1/2 140/1/2
f 135/1/2 139/1/2 141/1/2
f 140/1/2 136/1/2 142/1/2
f 133/1/2 134/1/2 143/1/2
f 134/2/2 135/2/2 144/2/2
f 143/1/2 134/1/2 144/1/2
f 141/1/2 142/1/2 145/1/2
f 144/2/2 135/2/2 145/2/2
f 135/1/2 141/1/2 145/1/2
f 136/2/2 137/2/2 146/2/2
f 145/1/2 142/1/2 146/1/2
f 142/1/2 136/1/2 146/1/2
f 137/1/2 138/1/2 147/1/2
f 146/2/2 137/2/2 147/2/2
f 147/1/2 138/1/2 148/1/2
f 143/2/2 144/2/2 149/2/2
f 144/2/2 145/2/2 149/2/2
f 147/2/2 148/2/2 149/2/2
f 146/2/2 147/2/2 149/2/2
f 145/2/2 146/2/2 149/2/2
f 149/2/2 148/2/2 150/2/2
f 150/2/2 148/2/2 151/2/2
f 151/2/2 148/2/2 152/2/2
f 152/2/2 148/2/2 153/2/2
f 153/2/2 148/2/2 154/2/2
f 149/1/2 150/1/2 155/1/2
f 150/2/2 151/2/2 156/2/2
f 155/1/2 150/1/2 156/1/2
f 151/1/2 152/1/2 157/1/2
f 156/2/2 151/2/2 157/2/2
f 152/2/2 153/2/2 158/2/2
f 157/1/2 152/1/2 158/1/2
f 153/1/2 154/1/2 159/1/2
f 158/2/2 153/2/2 159/2/2
f 159/1/2 154/1/2 160/1/2
f 167/1/3 162/1/3 161/1/3
f 168/2/3 163/2/3 162/2/3
f 168/1/3 162/1/3 167/1/3
f 169/1/3 164/1/3 163/1/3
f 169/2/3 163/2/3 168/2/3
f 170/2/3 165/2/3 164/2/3
f 170/1/3 164/1/3 169/1/3
f 171/1/3 166/1/3 165/1/3
f 171/2/3 165/2/3 170/2/3
f 172/1/3 166/1/3 171/1/3
f 173/2/3 170/2/3 169/2/3
f 173/2/3 168/2/3 167/2/3
f 173/2/3 172/2/3 171/2/3
f 173/2/3 171/2/3 170/2/3
f 173/2/3 169/2/3 168/2/3
f 174/2/3 172/2/3 173/2/3
f 175/2/3 172/2/3 174/2/3
f 176/2/3 172/2/3 175/2/3
f 177/2/3 172/2/3 176/2/3
f 178/2/3 172/2/3 177/2/3
f 179/1/3 176/1/3 175/1/3
f 180/1/3 176/1/3 179/1/3
f 181/1/3 179/1/3 175/1/3
f 182/1/3 176/1/3 180/1/3
f 183/1/3 174/1/3 173/1/3
f 184/2/3 175/2/3 174/2/3
f 184/1/3 174/1/3 183/1/3
f 185/1/3 182/1/3 181/1/3
f 185/2/3 175/2/3 184/2/3
f 185/1/3 181/1/3 175/1/3
f 186/2/3 177/2/3 176/2/3
f 186/1/3 182/1/3 185/1/3
f 186/1/3 176/1/3 182/1/3
f 187/1/3 178/1/3 177/1/3
f 187/2/3 177/2/3 186/2/3
f 188/1/3 178/1/3 187/1/3
f 189/2/3 184/2/3 183/2/3
f 189/2/3 185/2/3 184/2/3
f 189/2/3 188/2/3 187/2/3
f 189/2/3 187/2/3 186/2/3
f 189/2/3 186/2/3 185/2/3
f 190/2/3 188/2/3 189/2/3
f 191/2/3 188/2/3 190/2/3
f 192/2/3 188/2/3 191/2/3
f 193/2/3 188/2/3 192/2/3
f 194/2/3 188/2/3 193/2/3
f 195/1/3 190/1/3 189/1/3
f 196/2/3 191/2/3 190/2/3
f 196/1/3 190/1/3 195/1/3
f 197/1/3 192/1/3 191/1/3
f 197/2/3 191/2/3 196/2/3
f 198/2/3 193/2/3 192/2/3
f 198/1/3 192/1/3 197/1/3
f 199/1/3 194/1/3 193/1/3
f 199/2/3 193/2/3 198/2/3
f 200/1/3 194/1/3 199/1/3
f 205/1/3 202/1/3 201/1/3
f 206/2/3 203/2/3 202/2/3
f 206/1/3 202/1/3 205/1/3
f 207/1/3 204/1/3 203/1/3
f 207/2/3 203/2/3 206/2/3
f 208/1/3 204/1/3 207/1/3
f 209/2/3 206/2/3 205/2/3
f 209/2/3 207/2/3 206/2/3
f 209/2/3 208/2/3 207/2/3
f 210/2/3 208/2/3 209/2/3
f 211/2/3 208/2/3 210/2/3
f 212/2/3 208/2/3 211/2/3
f 213/1/3 210/1/3 209/1/3
f 214/2/3 211/2/3 210/2/3
f 214/1/3 210/1/3 213/1/3
f 215/1/3 212/1/3 211/1/3
f 215/2/3 211/2/3 214/2/3
f 216/1/3 212/1/3 215/1/3
f 219/1/3 218/1/3 217/1/3
f 220/1/3 218/1/3 219/1/3
f 221/1/3 218/1/3 220/1/3
f 222/1/3 218/1/3 221/1/3
f 227/1/3 224/1/3 223/1/3
f 228/1/3 226/1/3 225/1/3
f 229/1/3 227/1/3 223/1/3
f 230/1/3 226/1/3 228/1/3
f 231/1/3 229/1/3 223/1/3
f 232/1/3 229/1/3 231/1/3
f 233/1/3 226/1/3 230/1/3
f 234/1/3 226/1/3 233/1/3
f 239/1/3 236/1/3 235/1/3
f 239/1/3 238/1/3 237/1/3
f 239/1/3 237/1/3 236/1/3
f 240/1/3 238/1/3 239/1/3
f 241/1/4 242/1/4 243/1/4
f 243/1/4 242/1/4 244/1/4
f 244/1/4 242/1/4 245/1/4
f 245/1/4 242/1/4 246/1/4
f 247/1/4 248/1/4 251/1/4
f 249/1/4 250/1/4 252/1/4
f 247/1/4 251/1/4 253/1/4
f 252/1/4 250/1/4 254/1/4
f 247/1/4 253/1/4 255/1/4
f 255/1/4 253/1/4 256/1/4
f 254/1/4 250/1/4 257/1/4
f 257/1/4 250/1/4 258/1/4
f 259/1/4 260/1/4 263/1/4
f 261/1/4 262/1/4 263/1/4
f 260/1/4 261/1/4 263/1/4
f 263/1/4 262/1/4 264/1/4
f 265/1/4 266/1/4 269/1/4
f 266/2/4 267/2/4 270/2/4
f 269/1/4 266/1/4 270/1/4
f 267/1/4 268/1/4 271/1/4
f 270/2/4 267/2/4 271/2/4
f 271/1/4 268/1/4 272/1/4
f 269/2/4 270/2/4 273/2/4
f 270/2/4 271/2/4 273/2/4
f 271/2/4 272/2/4 273/2/4
f 273/2/4 272/2/4 274/2/4
f 274/2/4 272/2/4 275/2/4
f 275/2/4 272/2/4 276/2/4
f 273/1/4 274/1/4 277/1/4
f 274/2/4 275/2/4 278/2/4
f 277/1/4 274/1/4 278/1/4
f 275/1/4 276/1/4 279/1/4
f 278/2/4 275/2/4 279/2/4
f 279/1/4 276/1/4 280/1/4
f 281/1/4 282/1/4 287/1/4
f 282/2/4 283/2/4 288/2/4
f 287/1/4 282/1/4 288/1/4
f 283/1/4 284/1/4 289/1/4
f 288/2/4 283/2/4 289/2/4
f 284/2/4 285/2/4 290/2/4
f 289/1/4 284/1/4 290/1/4
f 285/1/4 286/1/4 291/1/4
f 290/2/4 285/2/4 291/2/4
f 291/1/4 286/1/4 292/1/4
f 289/2/4 290/2/4 293/2/4
f 287/2/4 288/2/4 293/2/4
f 291/2/4 292/2/4 293/2/4
f 290/2/4 291/2/4 293/2/4
f 288/2/4 289/2/4 293/2/4
f 293/2/4 292/2/4 294/2/4
f 294/2/4 292/2/4 295/2/4
f 295/2/4 292/2/4 296/2/4
f 296/2/4 292/2/4 297/2/4
f 297/2/4 292/2/4 298/2/4
f 295/1/4 296/1/4 299/1/4
f 299/1/4 296/1/4 300/1/4
f 295/1/4 299/1/4 301/1/4
f 300/1/4 296/1/4 302/1/4
f 293/1/4 294/1/4 303/1/4
f 294/2/4 295/2/4 304/2/4
f 303/1/4 294/1/4 304/1/4
f 301/1/4 302/1/4 305/1/4
f 304/2/4 295/2/4 305/2/4
f 295/1/4 301/1/4 305/1/4
f 296/2/4 297/2/4 306/2/4
f 305/1/4 302/1/4 306/1/4
f 302/1/4 296/1/4 306/1/4
f 297/1/4 298/1/4 307/1/4
f 306/2/4 297/2/4 307/2/4
f 307/1/4 298/1/4 308/1/4
f 303/2/4 304/2/4 309/2/4
f 304/2/4 305/2/4 309/2/4
f 307/2/4 308/2/4 309/2/4
f 306/2/4 307/2/4 309/2/4
f 305/2/4 306/2/4 309/2/4
f 309/2/4 308/2/4 310/2/4
f 310/2/4 308/2/4 311/2/4
f 311/2/4 308/2/4 312/2/4
f 312/2/4 308/2/4 313/2/4
f 313/2/4 308/2/4 314/2/4
f 309/1/4 310/1/4 315/1/4
f 310/2/4 311/2/4 316/2/4
f 315/1/4 310/1/4 316/1/4
f 311/1/4 312/1/4 317/1/4
f 316/2/4 311/2/4 317/2/4
f 312/2/4 313/2/4 318/2/4
f 317/1/4 312/1/4 318/1/4
f 313/1/4 314/1/4 319/1/4
f 318/2/4 313/2/4 319/2/4
f 319/1/4 314/1/4 320/1/4
f 327/1/5 322/1/5 321/1/5
f 328/2/5 323/2/5 322/2/5
f 328/1/5 322/1/5 327/1/5
f 329/1/5 324/1/5 323/1/5
f 329/2/5 323/2/5 328/2/5
f 330/2/5 325/2/5 324/2/5
f 330/1/5 324/1/5 329/1/5
f 331/1/5 326/1/5 325/1/5
f 331/2/5 325/2/5 330/2/5
f 332/1/5 326/1/5 331/1/5
f 333/2/5 330/2/5 329/2/5
f 333/2/5 328/2/5 327/2/5
f 333/2/5 332/2/5 331/2/5
f 333/2/5 331/2/5 330/2/5
f 333/2/5 329/2/5 328/2/5
f 334/2/5 332/2/5 333/2/5
f 335/2/5 332/2/5 334/2/5
f 336/2/5 332/2/5 335/2/5
f 337/2/5 332/2/5 336/2/5
f 338/2/5 332/2/5 337/2/5
f 339/1/5 336/1/5 335/1/5
f 340/1/5 336/1/5 339/1/5
f 341/1/5 339/1/5 335/1/5
f 342/1/5 336/1/5 340/1/5
f 343/1/5 334/1/5 333/1/5
f 344/2/5 335/2/5 334/2/5
f 344/1/5 334/1/5 343/1/5
f 345/1/5 342/1/5 341/1/5
f 345/2/5 335/2/5 344/2/5
f 345/1/5 341/1/5 335/1/5
f 346/2/5 337/2/5 336/2/5
f 346/1/5 342/1/5 345/1/5
f 346/1/5 336/1/5 342/1/5
f 347/1/5 338/1/5 337/1/5
f 347/2/5 337/2/5 346/2/5
f 348/1/5 338/1/5 347/1/5
f 349/2/5 344/2/5 343/2/5
f 349/2/5 345/2/5 344/2/5
f 349/2/5 348/2/5 347/2/5
f 349/2/5 347/2/5 346/2/5
f 349/2/5 346/2/5 345/2/5
f 350/2/5 348/2/5 349/2/5
f 351/2/5 348/2/5 350/2/5
f 352/2/5 348/2/5 351/2/5
f 353/2/5 348/2/5 352/2/5
f 354/2/5 348/2/5 353/2/5
f 355/1/5 350/1/5 349/1/5
f 356/2/5 351/2/5 350/2/5
f 356/1/5 350/1/5 355/1/5
f 357/1/5 352/1/5 351/1/5
f 357/2/5 351/2/5 356/2/5
f 358/2/5 353/2/5 352/2/5
f 358/1/5 352/1/5 357/1/5
f 359/1/5 354/1/5 353/1/5
f 359/2/5 353/2/5 358/2/5
f 360/1/5 354/1/5 359/1/5
f 365/1/5 362/1/5 361/1/5
f 366/2/5 363/2/5 362/2/5
f 366/1/5 362/1/5 365/1/5
f 367/1/5 364/1/5 363/1/5
f 367/2/5 363/2/5 366/2/5
f 368/1/5 364/1/5 367/1/5
f 369/2/5 366/2/5 365/2/5
f 369/2/5 367/2/5 366/2/5
f 369/2/5 368/2/5 367/2/5
f 370/2/5 368/2/5 369/2/5
f 371/2/5 368/2/5 370/2/5
f 372/2/5 368/2/5 371/2/5
f 373/1/5 370/1/5 369/1/5
f 374/2/5 371/2/5 370/2/5
f 374/1/5 370/1/5 373/1/5
f 375/1/5 372/1/5 371/1/5
f 375/2/5 371/2/5 374/2/5
f 376/1/5 372/1/5 375/1/5
f 379/1/5 378/1/5 377/1/5
f 380/1/5 378/1/5 379/1/5
f 381/1/5 378/1/5 380/1/5
f 382/1/5 378/1/5 381/1/5
f 387/1/5 384/1/5 383/1/5
f 388/1/5 386/1/5 385/1/5
f 389/1/5 387/1/5 383/1/5
f 390/1/5 386/1/5 388/1/5
f 391/1/5 389/1/5 383/1/5
f 392/1/5 389/1/5 391/1/5
f 393/1/5 386/1/5 390/1/5
f 394/1/5 386/1/5 393/1/5
f 399/1/5 396/1/5 395/1/5
f 399/1/5 398/1/5 397/1/5
f 399/1/5 397/1/5 396/1/5
f 400/1/5 398/1/5 399/1/5
f 401/1/6 402/1/6 403/1/6
f 403/1/6 402/1/6 404/1/6
f 404/1/6 402/1/6 405/1/6
f 405/1/6 402/1/6 406/1/6
f 407/1/6 408/1/6 411/1/6
f 409/1/6 410/1/6 412/1/6
f 407/1/6 411/1/6 413/1/6
f 412/1/6 410/1/6 414/1/6
f 407/1/6 413/1/6 415/1/6
f 415/1/6 413/1/6 416/1/6
f 414/1/6 410/1/6 417/1/6
f 417/1/6 410/1/6 418/1/6
f 419/1/6 420/1/6 423/1/6
f 421/1/6 422/1/6 423/1/6
f 420/1/6 421/1/6 423/1/6
f 423/1/6 422/1/6 424/1/6
f 425/1/6 426/1/6 429/1/6
f 426/2/6 427/2/6 430/2/6
f 429/1/6 426/1/6 430/1/6
f 427/1/6 428/1/6 431/1/6
f 430/2/6 427/2/6 431/2/6
f 431/1/6 428/1/6 432/1/6
f 429/2/6 430/2/6 433/2/6
f 430/2/6 431/2/6 433/2/6
f 431/2/6 432/2/6 433/2/6
f 433/2/6 432/2/6 434/2/6
f 434/2/6 432/2/6 435/2/6
f 435/2/6 432/2/6 436/2/6
f 433/1/6 434/1/6 437/1/6
f 434/2/6 435/2/6 438/2/6
f 437/1/6 434/1/6 438/1/6
f 435/1/6 436/1/6 439/1/6
f 438/2/6 435/2/6 439/2/6
f 439/1/6 436/1/6 440/1/6
f 441/1/6 442/1/6 447/1/6
f 442/2/6 443/2/6 448/2/6
f 447/1/6 442/1/6 448/1/6
f 443/1/6 444/1/6 449/1/6
f 448/2/6 443/2/6 449/2/6
f 444/2/6 445/2/6 450/2/6
f 449/1/6 444/1/6 450/1/6
f 445/1/6 446/1/6 451/1/6
f 450/2/6 445/2/6 451/2/6
f 451/1/6 446/1/6 452/1/6
f 449/2/6 450/2/6 453/2/6
f 447/2/6 448/2/6 453/2/6
f 451/2/6 452/2/6 453/2/6
f 450/2/6 451/2/6 453/2/6
f 448/2/6 449/2/6 453/2/6
f 453/2/6 452/2/6 454/2/6
f 454/2/6 452/2/6 455/2/6
f 455/2/6 452/2/6 456/2/6
f 456/2/6 452/2/6 457/2/6
f 457/2/6 452/2/6 458/2/6
f 455/1/6 456/1/6 459/1/6
f 459/1/6 456/1/6 460/1/6
f 455/1/6 459/1/6 461/1/6
f 460/1/6 456/1/6 462/1/6
f 453/1/6 454/1/6 463/1/6
f 454/2/6 455/2/6 464/2/6
f 463/1/6 454/1/6 464/1/6
f 461/1/6 462/1/6 465/1/6
f 464/2/6 455/2/6 465/2/6
f 455/1/6 461/1/6 465/1/6
f 456/2/6 457/2/6 466/2/6
f 465/1/6 462/1/6 466/1/6
f 462/1/6 456/1/6 466/1/6
f 457/1/6 458/1/6 467/1/6
f 466/2/6 457/2/6 467/2/6
f 467/1/6 458/1/6 468/1/6
f 463/2/6 464/2/6 469/2/6
f 464/2/6 465/2/6 469/2/6
f 467/2/6 468/2/6 469/2/6
f 466/2/6 467/2/6 469/2/6
f 465/2/6 466/2/6 469/2/6
f 469/2/6 468/2/6 470/2/6
f 470/2/6 468/2/6 471/2/6
f 471/2/6 468/2/6 472/2/6
f 472/2/6 468/2/6 473/2/6
f 473/2/6 468/2/6 474/2/6
f 469/1/6 470/1/6 475/1/6
f 470/2/6 471/2/6 476/2/6
f 475/1/6 470/1/6 476/1/6
f 471/1/6 472/1/6 477/1/6
f 476/2/6 471/2/6 477/2/6
f 472/2/6 473/2/6 478/2/6
f 477/1/6 472/1/6 478/1/6
f 473/1/6 474/1/6 479/1/6
f 478/2/6 473/2/6 479/2/6
f 479/1/6 474/1/6 480/1/6
